<svg width="20" height="19" viewBox="0 0 20 19" fill="none" xmlns="http://www.w3.org/2000/svg">
<path d="M11.8182 10.9091C12.9895 10.9092 14.1156 11.3614 14.9616 12.1715C15.8076 12.9816 16.3083 14.087 16.3591 15.2573L16.3636 15.4545V16.3636C16.3638 16.8223 16.1905 17.2642 15.8786 17.6005C15.5667 17.9368 15.1392 18.1429 14.6818 18.1773L14.5455 18.1818H1.81818C1.35948 18.182 0.917667 18.0087 0.58132 17.6968C0.244973 17.3849 0.0389485 16.9574 0.00454556 16.5L0 16.3636V15.4545C6.7675e-05 14.2832 0.45231 13.1571 1.26242 12.3111C2.07253 11.4651 3.17796 10.9645 4.34818 10.9136L4.54545 10.9091H11.8182ZM8.18182 0C9.38735 0 10.5435 0.478895 11.3959 1.33133C12.2484 2.18377 12.7273 3.33992 12.7273 4.54545C12.7273 5.75098 12.2484 6.90714 11.3959 7.75958C10.5435 8.61201 9.38735 9.09091 8.18182 9.09091C6.97629 9.09091 5.82013 8.61201 4.9677 7.75958C4.11526 6.90714 3.63636 5.75098 3.63636 4.54545C3.63636 3.33992 4.11526 2.18377 4.9677 1.33133C5.82013 0.478895 6.97629 0 8.18182 0Z" fill="#2F2E2E"/>
<rect x="16.3633" y="5.4541" width="1.81818" height="5.45455" fill="#2F2E2E"/>
<rect x="20" y="7.27246" width="1.81818" height="5.45455" transform="rotate(90 20 7.27246)" fill="#2F2E2E"/>
</svg>
