<svg width="17" height="17" viewBox="0 0 17 17" fill="none" xmlns="http://www.w3.org/2000/svg">
<path d="M0 16.0497H1.88878V10.3851H0V16.0497ZM8.93393 16.9938L6.16687 16.3896L3.39981 15.7382C3.23965 15.707 3.09576 15.62 2.99372 15.4927C2.88817 15.3691 2.83112 15.2114 2.83317 15.049V11.2726C2.83584 11.1109 2.89234 10.9548 2.99372 10.8288C3.0992 10.7055 3.24158 10.6195 3.39981 10.5834L7.91399 10.0264L12.4376 9.45989L12.5793 9.98859L12.7209 10.5078C12.7234 10.6819 12.6741 10.8528 12.5793 10.9988C12.4925 11.1514 12.3605 11.2735 12.2015 11.3481L10.3127 11.8201L8.42396 12.2922L9.95388 12.9153L11.4932 13.529L13.637 12.9247L15.7241 12.2733C15.9096 12.2264 16.106 12.2535 16.2718 12.3488C16.3554 12.3939 16.4287 12.4558 16.4872 12.5305C16.5457 12.6052 16.5881 12.6912 16.6118 12.7831L16.7913 13.5101L16.9801 14.2276C17.023 14.407 16.996 14.596 16.9046 14.7563C16.8075 14.918 16.652 15.0363 16.4702 15.0867L13.042 16.0308L9.6139 16.9749C9.50103 16.9894 9.38678 16.9894 9.27391 16.9749C9.1624 16.9999 9.04753 17.0063 8.93393 16.9938ZM5.66634 0L3.77756 1.8882L1.88878 3.7764L3.77756 5.66461L5.66634 7.55281L6.32742 6.89194L6.98849 6.23107L5.76078 5.00374L4.53307 3.7764L5.76078 2.54907L6.98849 1.32174L6.32742 0.660871L5.66634 0ZM11.3327 0L10.6716 0.660871L10.0105 1.32174L11.2382 2.54907L12.466 3.7764L11.2382 5.00374L10.0105 6.23107L10.6716 6.89194L11.3327 7.55281L13.2215 5.66461L15.1102 3.7764L13.2215 1.8882L11.3327 0Z" fill="black"/>
</svg>
