<svg width="982" height="982" viewBox="0 0 982 982" fill="none" xmlns="http://www.w3.org/2000/svg">
<rect width="982" height="982" fill="white"/>
<path d="M428.716 577.398C433.618 561.059 438.739 544.768 444.094 528.52C444.094 532.024 444.094 535.7 444.094 539.548C430.616 609.476 420.544 680.14 417.872 751.405C417.566 761.538 417.431 771.671 417.59 781.793C417.799 791.873 414.613 801.732 408.535 809.779C402.458 817.827 393.856 823.593 384.103 826.149L383.367 826.333C382.032 803.713 384.262 780.567 387.043 758.168C395.388 696.805 411.145 636.666 428.716 577.398ZM271.067 817.18L271.386 817.314C293.442 706.73 346.914 601.659 426.462 521.866C432.172 516.303 438.053 510.924 444.094 505.729V500.362C348.519 561.75 276.839 660.633 247.86 770.409C245.372 779.694 246.365 789.565 250.629 798.175C254.905 806.784 262.171 813.54 271.067 817.18ZM271.631 565.132C273.567 563.907 278.811 560.096 280.808 559.006C287.879 554.546 295.696 549.963 303.011 545.993C337.099 526.845 373.222 511.576 410.716 500.472C418.73 498.181 426.817 496.074 434.965 494.26C432.319 494.26 429.182 494.174 425.592 494.138L419.392 495.155C336.438 509.38 199.828 550.563 169.268 637.622V637.781C166.818 645.46 165.727 653.509 166.058 661.565C166.487 671.849 167.675 682.087 169.611 692.197C177.637 673.35 187.488 655.329 199.019 638.394C218.55 609.763 243.142 584.936 271.594 565.132H271.631ZM300.169 583.034C319.786 565.426 341.253 549.991 364.191 536.999C388.796 522.442 413.78 508.486 439.56 496.147L443.347 494.407C442.526 494.407 441.031 494.334 438.96 494.297C429.611 496.564 420.384 499.198 411.243 502.176C374.374 514.364 338.987 530.648 305.744 550.723C298.649 554.876 291.113 559.606 284.288 564.201C282.389 565.426 277.427 569.102 275.503 570.536C250.408 589.177 228.647 611.92 211.137 637.806C207.461 643.32 203.087 650.316 199.742 656.063C198.749 657.925 195.563 663.635 194.571 665.486C192.169 670.093 189.878 674.753 187.721 679.466C182.452 690.916 180.026 703.467 180.651 716.053C181.276 728.64 184.94 740.889 191.312 751.76L191.532 752.128C211.027 687.161 249.918 628.334 300.132 583.034H300.169ZM444.106 515.642C444.106 512.542 444.106 509.711 444.106 507.187C438.494 512.374 433.054 517.708 427.773 523.19C364.387 590.19 320.852 674.835 296.284 763.266C291.015 782.523 286.776 802.045 283.578 821.75L283.896 821.848C287.83 823.067 291.971 823.447 296.051 822.964C300.144 822.482 304.077 821.146 307.618 819.043C311.16 816.942 314.223 814.12 316.6 810.761C318.977 807.403 320.631 803.582 321.44 799.547C341.841 697.846 380.708 595.508 444.069 515.605L444.106 515.642ZM456.837 729.864C455.306 726.31 453.982 722.669 452.892 718.958C446.079 696.229 445.454 671.526 444.743 647.976C444.425 637.071 444.253 587.764 444.168 547.929C434.622 615.321 428.361 683.449 428.949 751.503C429.219 768.829 430.027 786.265 431.939 803.505C438.801 798.198 444.915 791.986 450.11 785.04C458.798 773.35 463.822 754.811 460.599 740.205C459.594 736.653 458.332 733.184 456.8 729.827L456.837 729.864ZM444.082 524.084C444.082 521.634 444.082 519.256 444.082 517.014C387.84 593.29 356.104 685.569 337.357 777.835C333.926 795.32 330.973 812.94 328.62 830.621H329.098C339.452 831.184 349.622 827.704 357.464 820.916C365.319 814.127 370.22 804.56 371.151 794.229C378.699 710.871 415.275 600.789 444.082 524.084ZM444.082 499.296C444.082 497.127 444.082 495.62 444.082 494.897C434.279 499.872 424.55 505.202 414.932 510.606C398.39 519.992 382.167 529.929 366.139 540.136C354.058 547.619 342.356 555.703 331.095 564.36C282.855 602.513 244.747 651.961 220.155 708.335C216.308 717.133 212.865 726.081 209.826 735.181C202.781 756.159 209.949 779.513 228.046 792.257L228.99 792.906C257.515 671.771 337.234 562.853 444.057 499.345L444.082 499.296ZM413.633 494.052C372.964 494.113 301.798 496.27 265.1 509.613C234.406 520.841 208.147 541.642 190.196 568.943C183.494 579.174 178.005 590.153 173.851 601.659C224.677 535.21 333.828 505.472 413.608 494.052H413.633Z" fill="url(#paint0_linear_1393_1121)"/>
<path d="M239.209 430.042C219.91 410.772 205.672 387.04 197.745 360.951C189.817 334.862 188.444 307.219 193.762 280.474C199.068 253.729 210.904 228.706 228.194 207.625C245.483 186.545 267.722 170.056 292.915 159.62C318.095 149.185 345.481 145.124 372.609 147.8C399.75 150.476 425.8 159.806 448.469 174.96C471.137 190.115 489.725 210.628 502.566 234.682C515.407 258.735 522.122 285.586 522.11 312.853V657.227C522.11 679.792 528.8 701.85 541.335 720.61C553.87 739.372 571.686 753.995 592.529 762.631C613.384 771.266 636.322 773.527 658.451 769.126C680.58 764.724 700.908 753.859 716.861 737.905C732.815 721.951 743.684 701.623 748.095 679.493C752.494 657.362 750.239 634.423 741.601 613.575C732.974 592.729 718.344 574.909 699.585 562.372C680.825 549.835 658.769 543.141 636.211 543.138H535.037V530.223H636.211C661.33 530.221 685.885 537.667 706.765 551.621C727.656 565.575 743.941 585.41 753.547 608.617C763.166 631.823 765.69 657.36 760.789 681.997C755.888 706.635 743.794 729.265 726.027 747.028C708.272 764.792 685.64 776.889 660.999 781.79C636.371 786.692 610.823 784.177 587.615 774.565C564.408 764.952 544.582 748.674 530.626 727.788C516.669 706.903 509.22 682.348 509.22 657.227V312.853C509.232 282.603 500.287 253.027 483.488 227.866C466.689 202.707 442.82 183.093 414.87 171.506C386.933 159.921 356.178 156.885 326.513 162.78C296.836 168.676 269.585 183.24 248.191 204.629C226.797 226.018 212.24 253.272 206.334 282.94C200.44 312.61 203.479 343.362 215.058 371.306C226.637 399.251 246.255 423.131 271.41 439.928C296.566 456.723 326.145 465.679 356.398 465.662H444.621V478.564H356.398C334.624 478.584 313.071 474.307 292.964 465.981C272.856 457.655 254.587 445.441 239.209 430.042ZM483.39 401.124V657.215C483.378 687.458 492.323 717.026 509.122 742.178C525.908 767.331 549.79 786.938 577.727 798.518C605.664 810.099 636.407 813.134 666.072 807.238C695.737 801.343 722.988 786.781 744.37 765.397C765.752 744.013 780.321 716.767 786.214 687.104C792.12 657.442 789.082 626.696 777.502 598.758C765.923 570.819 746.318 546.942 721.175 530.146C696.019 513.352 666.452 504.394 636.211 504.406H535.037V517.321H636.211C663.879 517.318 690.934 525.522 713.945 540.894C736.944 556.265 754.883 578.115 765.47 603.679C776.069 629.244 778.838 657.374 773.434 684.514C768.043 711.655 754.724 736.585 735.155 756.152C715.587 775.719 690.664 789.046 663.524 794.444C636.383 799.844 608.25 797.074 582.677 786.486C557.117 775.897 535.27 757.964 519.892 734.956C504.514 711.949 496.317 684.899 496.317 657.227V312.853C496.305 285.181 488.095 258.132 472.717 235.127C457.34 212.123 435.492 194.194 409.92 183.61C384.36 173.026 356.227 170.26 329.086 175.665C301.945 181.069 277.022 194.399 257.454 213.97C237.898 233.54 224.579 258.473 219.188 285.614C213.796 312.756 216.565 340.885 227.164 366.448C237.763 392.01 255.702 413.858 278.713 429.224C301.725 444.592 328.768 452.791 356.447 452.784H444.67V439.844H356.447C331.328 439.847 306.773 432.4 285.881 418.445C264.99 404.491 248.718 384.656 239.099 361.449C229.48 338.241 226.968 312.704 231.87 288.066C236.771 263.428 248.865 240.798 266.632 223.034C284.387 205.272 307.018 193.176 331.659 188.276C356.3 183.376 381.836 185.893 405.043 195.507C428.251 205.12 448.076 221.401 462.033 242.288C475.989 263.176 483.439 287.732 483.439 312.853L483.39 401.124ZM566.711 821.799C591.095 832.12 617.476 836.895 643.931 835.768C670.385 834.641 696.264 827.649 719.68 815.297C743.108 802.943 763.497 785.537 779.365 764.339C795.233 743.14 806.199 718.679 811.444 692.725C816.7 666.77 816.124 639.973 809.753 614.269C803.381 588.567 791.373 564.602 774.598 544.109C757.836 523.617 736.712 507.108 712.781 495.779C688.839 484.448 662.69 478.581 636.211 478.601H535.037V491.503H636.211C669.001 491.489 701.067 501.202 728.343 519.415C755.618 537.627 776.89 563.52 789.449 593.819C801.996 624.118 805.292 657.46 798.896 689.628C792.5 721.797 776.706 751.346 753.523 774.538C730.328 797.729 700.773 813.521 668.608 819.916C636.444 826.311 603.103 823.021 572.801 810.464C542.499 797.906 516.608 776.644 498.4 749.367C480.18 722.091 470.475 690.025 470.487 657.227V312.853C470.487 290.291 463.785 268.238 451.25 249.479C438.715 230.722 420.899 216.102 400.056 207.469C379.214 198.837 356.276 196.579 334.147 200.98C312.017 205.383 291.702 216.247 275.748 232.2C259.794 248.153 248.926 268.479 244.527 290.607C240.116 312.734 242.383 335.67 251.009 356.514C259.647 377.359 274.265 395.175 293.025 407.712C311.785 420.247 333.828 426.939 356.398 426.942H444.621V414.039H356.398C336.377 414.042 316.821 408.11 300.181 396.993C283.529 385.875 270.565 370.072 262.907 351.584C255.236 333.095 253.239 312.748 257.136 293.12C261.044 273.491 270.675 255.46 284.828 241.308C298.98 227.155 317.004 217.517 336.634 213.612C356.264 209.706 376.616 211.709 395.106 219.367C413.596 227.025 429.403 239.995 440.516 256.635C451.63 273.276 457.573 292.839 457.573 312.853V657.227C457.585 692.336 467.926 726.664 487.323 755.929C506.72 785.196 534.289 808.104 566.626 821.799H566.711Z" fill="#2E3192"/>
<path d="M788.334 318.661C785.724 322.812 782.453 326.501 778.642 329.579C761.965 343.057 736.381 343.67 719.177 330.902C713.994 326.963 709.644 322.031 706.385 316.396C703.126 310.761 701.018 304.532 700.197 298.076C701.925 301.527 704.375 304.564 707.39 306.984C702.17 294.841 705.454 272.271 719.704 267.112C727.938 264.168 737.018 264.609 744.933 268.338C746.367 268.901 747.617 269.862 748.536 271.107C748.977 271.736 749.198 272.498 749.149 273.266C749.1 274.034 748.793 274.765 748.279 275.334C747.323 276.217 745.828 276.217 744.603 276.56C743.377 276.903 742.042 278.128 742.544 279.329C746.857 280.178 751.317 279.857 755.459 278.4C759.613 276.944 763.289 274.404 766.131 271.046C767.099 269.82 768.006 268.35 767.565 266.892C767.063 265.152 765.029 264.441 763.301 263.927C755.949 261.635 750.594 256.93 745.534 251.183C744.112 249.62 742.287 248.486 740.265 247.914C738.231 247.342 736.087 247.354 734.065 247.948C731.614 248.696 729.078 250.252 726.86 249.076C727.693 246.249 729.605 243.866 732.19 242.447C736.295 240.217 740.02 241.074 743.635 243.525C752.138 249.284 761.524 254.43 770.212 260.067C771.253 260.751 772.442 261.177 773.679 261.312C774.917 261.445 776.167 261.284 777.331 260.839C778.336 260.423 779.23 259.767 779.928 258.927C782.281 256.354 783.604 252.458 782.061 249.321C780.995 247.488 779.524 245.93 777.747 244.775C765.739 235.514 755.153 224.54 746.343 212.206C743.5 207.154 741.429 201.701 740.216 196.032C739.187 191.319 736.601 187.094 732.864 184.048C726.088 178.433 718.859 173.379 711.262 168.94C701.116 162.054 689.206 157.361 677.296 154.138C646.369 145.745 613.126 145.255 582.334 154.138C551.542 163.022 522.919 180.777 503.473 206.263C519.071 211.709 535.797 213.059 552.069 210.184C565.474 191.02 586.157 178.681 608.642 172.199C612.073 171.207 615.54 170.386 619.032 169.749H618.836C604.279 174.65 590.041 181.169 578.291 191.057C567.973 199.732 559.911 210.662 553.147 222.266C549.275 228.809 544.484 236.234 541.298 243.954C537.426 251.514 533.946 259.283 530.418 267.002C548.675 267.125 566.368 260.189 582.089 250.902C597.81 241.614 611.974 229.924 626.862 219.337C631.432 216.09 636.113 212.941 640.904 210C646.271 207.256 651.246 204.536 655.608 201.975C630.097 217.095 625.735 231.382 576.673 261.5C564.285 278.802 547.584 310.354 545.428 331.515C552.633 317.314 575.031 290.21 588.228 281.277C557.681 310.562 544.117 342.739 537.684 358.386C535.49 363.716 533.665 367.858 532.929 373.482L535.87 372.551C534.424 374.83 533.665 379.645 534.645 385.968C539.742 378.251 546.187 371.518 553.686 366.093C534.081 385.931 533.726 414.04 537.512 440.617C544.937 435.577 552.559 430.851 560.376 426.44C571.821 419.995 583.927 415.327 596.168 410.707C578.842 417.682 562.447 426.782 547.364 437.799C542.364 441.475 537.01 446.29 538.529 452.919C539.228 455.649 540.894 458.029 543.234 459.609C548.283 463.163 554.409 463.285 560.315 463.457L644.531 465.197C658.647 465.491 672.86 465.785 686.755 463.322C698.384 461.264 709.877 457.134 719.3 450.125C719.729 449.802 720.047 449.355 720.219 448.843C720.378 448.33 720.39 447.779 720.231 447.264C720.072 446.748 719.765 446.294 719.337 445.962C718.92 445.63 718.405 445.436 717.866 445.408C695.811 444.391 674.331 441.732 655.204 430.3C639.36 438.914 621.226 442.39 603.324 440.249C615.994 438.694 628.516 436.071 640.745 432.407C646.7 430.618 652.998 429.111 655.963 423.659C660.865 414.751 659.884 403.367 654.983 394.447C650.082 385.527 641.762 378.898 632.682 374.327C623.86 369.892 614.303 367.221 604.733 364.635L604.843 364.464C621.704 365.502 637.657 372.483 649.861 384.167C655.767 380.535 660.669 375.479 664.112 369.463C671.549 386.483 684.905 400.229 701.704 408.155C718.503 416.081 737.606 417.65 755.483 412.57C755.949 412.431 756.366 412.146 756.66 411.754C756.954 411.361 757.113 410.885 757.113 410.395C757.113 409.904 756.954 409.428 756.66 409.036C756.366 408.644 755.949 408.358 755.483 408.22C749.283 406.458 743.586 403.246 738.868 398.851C734.151 394.456 730.548 389.003 728.355 382.941C694.475 379.057 662.641 356.095 649.543 324.616C658.304 339.467 670.14 352.664 684.673 361.927C699.205 371.191 716.531 376.411 733.685 375.406C750.84 374.401 767.896 367.061 779.487 354.294C787.979 344.977 793.186 333.131 794.301 320.573C794.314 319.866 794.105 319.17 793.701 318.593C793.297 318.014 792.709 317.584 792.035 317.369C791.361 317.153 790.638 317.163 789.964 317.396C789.302 317.628 788.726 318.073 788.334 318.661ZM717.143 203.323C719.827 203.568 722.535 203.727 725.194 204.168C729.972 205.333 734.42 207.594 738.182 210.772C739.321 211.789 739.799 215.233 739.995 217.659C739.995 217.876 739.934 218.089 739.824 218.276C739.714 218.462 739.554 218.617 739.37 218.724C739.174 218.829 738.966 218.883 738.746 218.879C738.525 218.874 738.317 218.813 738.133 218.7L732.006 214.13C729.066 211.973 726.027 209.931 722.902 208.003C721.285 207.023 719.055 205.332 716.886 204.168C716.812 204.108 716.751 204.027 716.727 203.936C716.702 203.847 716.702 203.75 716.727 203.659C716.751 203.569 716.812 203.488 716.886 203.428C716.959 203.368 717.045 203.331 717.143 203.323Z" fill="url(#paint1_linear_1393_1121)"/>
<defs>
<linearGradient id="paint0_linear_1393_1121" x1="165.911" y1="662.386" x2="461.543" y2="662.386" gradientUnits="userSpaceOnUse">
<stop stop-color="#E68E21"/>
<stop offset="1" stop-color="#E96F1E"/>
</linearGradient>
<linearGradient id="paint1_linear_1393_1121" x1="503.534" y1="306.604" x2="794.363" y2="306.604" gradientUnits="userSpaceOnUse">
<stop stop-color="#E68E21"/>
<stop offset="1" stop-color="#E96F1E"/>
</linearGradient>
</defs>
</svg>
