<svg width="51" height="51" viewBox="0 0 51 51" fill="none" xmlns="http://www.w3.org/2000/svg">
<g clip-path="url(#clip0_1727_1478)">
<path d="M25.5 50C39.031 50 50 39.031 50 25.5C50 11.969 39.031 1 25.5 1C11.969 1 1 11.969 1 25.5C1 39.031 11.969 50 25.5 50Z" stroke="url(#paint0_linear_1727_1478)" stroke-width="2"/>
<path d="M36.6255 15.6881H35.32C35.2996 14.8671 35.1773 14.0206 34.8085 13.2544C34.6163 12.8539 34.3277 12.4374 33.8918 12.2027C33.7386 12.0994 33.5066 12.0002 33.1613 12.0002C31.2279 12.0002 30.6275 14.7035 30.6275 15.6881H30.0805C30.0602 14.8671 29.9378 14.0206 29.569 13.2544C29.3483 12.7954 29.003 12.3133 28.4511 12.1116C28.2738 12.0352 28.0823 11.9972 27.8892 12.0002C25.9558 12.0002 25.3554 14.7035 25.3554 15.6881H24.842C24.8211 14.8671 24.6983 14.0206 24.3304 13.2544C24.0789 12.7311 23.6675 12.1755 22.9688 12.0432C22.8538 12.015 22.7359 12.0005 22.6176 12.0002C20.6841 12.0002 20.0837 14.7035 20.0837 15.6881H19.6029C19.5816 14.8671 19.4602 14.0206 19.0923 13.2544C18.834 12.717 18.4044 12.1483 17.6708 12.036C17.564 12.0123 17.4549 12.0003 17.3455 12.0002C15.412 12.0002 14.8116 14.7035 14.8116 15.6881H14.7504C13.7839 15.6881 13 16.4489 13 17.3869V37.4894C13 38.4264 13.7839 39.1877 14.7504 39.1877H36.625C37.5915 39.1877 38.375 38.4264 38.375 37.4894V17.3869C38.375 16.4489 37.5915 15.6881 36.6255 15.6881ZM34.2031 18.8043C34.2031 19.5075 33.6163 20.0785 32.8908 20.0785C32.643 20.0797 32.3999 20.0101 32.1903 19.8779C31.9806 19.7457 31.813 19.5563 31.7073 19.3322C31.9832 19.5266 32.3267 19.6466 32.763 19.6466C33.0685 19.6466 33.3263 19.561 33.5089 19.3992C33.6802 19.2474 33.7744 19.0408 33.7744 18.8179C33.7744 18.4513 33.4962 18.0616 32.9801 18.0616C32.7807 18.0616 32.6498 17.8627 32.5623 17.5772C32.6674 17.5496 32.7766 17.531 32.8908 17.531C33.6163 17.5301 34.2031 18.1001 34.2031 18.8043ZM34.0073 15.6881H32.3897C32.3897 14.9545 32.7689 13.5852 33.4944 13.5852C33.5193 13.5852 33.6326 13.7347 33.6598 13.7954C33.8573 14.2341 33.9901 15.0488 34.0073 15.6881ZM33.1613 12.4533C33.4414 12.4533 33.6031 12.5403 33.6892 12.6132C33.7799 12.6903 33.8315 12.79 33.8315 12.8865C33.8315 13.041 33.7055 13.133 33.4939 13.133C32.3933 13.133 31.9361 14.7973 31.9361 15.6886C31.9361 16.6764 31.9361 18.5143 32.9796 18.5143C33.2153 18.5143 33.3208 18.6665 33.3208 18.8179C33.3205 18.8639 33.3102 18.9094 33.2907 18.9511C33.2712 18.9929 33.243 19.0299 33.208 19.0599C33.1092 19.1473 32.9552 19.1935 32.7626 19.1935C31.2804 19.1935 31.0806 17.4214 31.0806 15.6886C31.0806 14.8594 31.5931 12.4533 33.1613 12.4533ZM31.1576 24.9106V25.7457H27.7682V21.1007H28.7683V24.9106H31.1576ZM27.6522 20.078C27.4115 20.0794 27.175 20.0141 26.9691 19.8892C26.7632 19.7644 26.596 19.5849 26.4859 19.3707C26.7528 19.5433 27.0822 19.6462 27.4909 19.6462C27.7963 19.6462 28.0542 19.5606 28.2368 19.3988C28.4081 19.247 28.5023 19.0404 28.5023 18.8174C28.5023 18.4509 28.2241 18.0612 27.708 18.0612C27.5109 18.0612 27.3804 17.8672 27.2934 17.5872C27.4097 17.5514 27.5305 17.5324 27.6522 17.5306C28.3772 17.5306 28.9645 18.1006 28.9645 18.8047C28.9645 19.5075 28.3772 20.078 27.6522 20.078ZM27.1176 15.6881C27.1176 14.9545 27.4968 13.5852 28.2223 13.5852C28.2581 13.5852 28.3895 13.7306 28.4212 13.7954C28.6342 14.2268 28.7515 15.0488 28.7692 15.6881H27.1176ZM27.8892 12.4533C28.1693 12.4533 28.331 12.5403 28.4171 12.6132C28.5077 12.6903 28.5594 12.79 28.5594 12.8865C28.5594 13.041 28.4334 13.133 28.2218 13.133C27.1212 13.133 26.664 14.7973 26.664 15.6886C26.664 16.6764 26.664 18.5143 27.7075 18.5143C27.9432 18.5143 28.0487 18.6665 28.0487 18.8179C28.0483 18.8639 28.0381 18.9094 28.0186 18.9511C27.9991 18.9929 27.9709 19.0299 27.9359 19.0599C27.8371 19.1473 27.6831 19.1935 27.4905 19.1935C26.0083 19.1935 25.8085 17.4214 25.8085 15.6886C25.8089 14.8594 26.321 12.4533 27.8892 12.4533ZM23.9828 21.1007V23.9527C23.9828 24.2721 24.0218 24.5055 24.0988 24.6523C24.2203 24.9124 24.4831 25.0425 24.8882 25.0425C25.291 25.0425 25.5547 24.9124 25.6739 24.6523C25.7518 24.5055 25.7908 24.2717 25.7908 23.9527V21.1007H26.8067V23.9554C26.8067 24.4489 26.7279 24.8336 26.5706 25.1091C26.277 25.6134 25.7156 25.8653 24.8882 25.8653C24.0608 25.8653 23.498 25.6129 23.203 25.1091C23.0444 24.834 22.966 24.4489 22.966 23.9554V21.1007H23.9828ZM22.4137 20.078C22.1778 20.0791 21.9459 20.0164 21.7427 19.8967C21.5394 19.777 21.3722 19.6047 21.2587 19.3979C21.5178 19.5538 21.8323 19.6462 22.2184 19.6462C22.5238 19.6462 22.7816 19.5606 22.9642 19.3988C23.1355 19.247 23.2298 19.0404 23.2298 18.8174C23.2298 18.4509 22.9515 18.0612 22.4354 18.0612C22.2406 18.0612 22.1114 17.8722 22.024 17.5981C22.1494 17.5555 22.2808 17.5327 22.4132 17.5306C23.1373 17.5306 23.725 18.1006 23.725 18.8047C23.7255 19.5075 23.1378 20.078 22.4137 20.078ZM21.8455 15.6881C21.8455 14.9545 22.2247 13.5852 22.9502 13.5852C22.9973 13.5852 23.1455 13.7261 23.1822 13.7954C23.4083 14.22 23.512 15.0488 23.5293 15.6881H21.8455ZM22.6176 12.4533C22.8976 12.4533 23.0594 12.5403 23.1455 12.6132C23.2361 12.6903 23.2878 12.79 23.2878 12.8865C23.2878 13.041 23.1618 13.133 22.9502 13.133C21.8495 13.133 21.3923 14.7973 21.3923 15.6886C21.3923 16.6764 21.3923 18.5143 22.4359 18.5143C22.6715 18.5143 22.7771 18.6665 22.7771 18.8179C22.7767 18.8639 22.7664 18.9094 22.7469 18.9511C22.7275 18.9929 22.6993 19.0299 22.6642 19.0599C22.5655 19.1473 22.4114 19.1935 22.2188 19.1935C20.7367 19.1935 20.5368 17.4214 20.5368 15.6886C20.5368 14.8594 21.0493 12.4533 22.6176 12.4533ZM18.9074 23.984H19.8526V24.0909C19.8617 24.4498 19.8988 24.7031 19.9668 24.849C20.0348 24.9949 20.1811 25.0678 20.405 25.0678C20.627 25.0678 20.7725 24.9876 20.844 24.8286C20.8875 24.7343 20.9079 24.5744 20.9079 24.3496V21.1007H21.908V24.3342C21.908 24.7289 21.84 25.042 21.7018 25.2731C21.4689 25.6641 21.0498 25.8594 20.4417 25.8594C19.8345 25.8594 19.4267 25.7009 19.2196 25.3846C19.0125 25.0683 18.9078 24.6378 18.9078 24.0909L18.9074 23.984ZM17.1638 18.0607C16.9667 18.0607 16.8366 17.8672 16.7496 17.5881C16.8647 17.5541 16.9843 17.5301 17.1107 17.5301C17.8357 17.5301 18.4239 18.1001 18.4239 18.8043C18.4239 19.5075 17.8353 20.0785 17.1107 20.0785C16.8706 20.0797 16.6347 20.0146 16.4292 19.8903C16.2236 19.7661 16.0563 19.5875 15.9458 19.3743C16.2122 19.5451 16.5407 19.6466 16.9467 19.6466C17.2521 19.6466 17.51 19.561 17.6926 19.3988C17.8638 19.2474 17.9581 19.0408 17.9581 18.8174C17.9581 18.4504 17.6799 18.0607 17.1638 18.0607ZM16.5738 15.6881C16.5738 14.9545 16.9531 13.5852 17.6785 13.5852C17.7374 13.5852 17.9019 13.7216 17.944 13.7954C18.1819 14.2137 18.2739 15.0488 18.2911 15.6881H16.5738ZM17.3455 12.4533C17.6255 12.4533 17.7873 12.5403 17.8734 12.6132C17.964 12.6898 18.0156 12.79 18.0156 12.8865C18.0156 13.041 17.8897 13.133 17.6781 13.133C16.5774 13.133 16.1202 14.7973 16.1202 15.6886C16.1202 16.6764 16.1202 18.5143 17.1638 18.5143C17.3994 18.5143 17.505 18.6665 17.505 18.8174C17.5046 18.8636 17.4944 18.9091 17.4749 18.9509C17.4554 18.9927 17.4272 19.0299 17.3921 19.0599C17.2934 19.1473 17.1393 19.1935 16.9467 19.1935C15.4645 19.1935 15.2647 17.4218 15.2647 15.6886C15.2647 14.8594 15.7772 12.4533 17.3455 12.4533ZM37.0156 37.4894C37.0156 37.9262 36.6373 38.2819 36.1724 38.2819H15.2035C14.7382 38.2819 14.3594 37.9262 14.3594 37.4894V27.4685H37.0156V37.4894Z" fill="white"/>
<path d="M21.3217 37.0937H23.1485V29.0938H21.6592C21.6592 29.1644 21.6363 29.2711 21.5901 29.4139C21.5111 29.6525 21.3962 29.8442 21.2414 29.9874C21.0178 30.1973 20.7252 30.3366 20.3675 30.4065C20.1431 30.4511 19.7494 30.4844 19.1875 30.5066V31.5771H21.3222V37.0937H21.3217ZM28.6274 32.619C27.6121 34.1672 27.0784 35.6588 27.0241 37.0934H28.8765C28.8765 36.6332 28.9783 36.0445 29.1844 35.3274C29.3886 34.6104 29.6184 34.0035 29.8742 33.5068C30.1951 32.8743 30.5946 32.2612 31.0717 31.6672C31.5488 31.0731 31.9213 30.6606 32.1875 30.4286V29.1989H25.7786L25.7539 30.6109H30.2755C29.832 30.9897 29.2831 31.6594 28.6274 32.619Z" fill="white"/>
</g>
<defs>
<linearGradient id="paint0_linear_1727_1478" x1="25.5" y1="-3.29574e-08" x2="25.5" y2="51" gradientUnits="userSpaceOnUse">
<stop stop-color="#E78C21"/>
<stop offset="1" stop-color="#E9711F"/>
</linearGradient>
<clipPath id="clip0_1727_1478">
<rect width="51" height="51" fill="white"/>
</clipPath>
</defs>
</svg>
