<svg width="51" height="51" viewBox="0 0 51 51" fill="none" xmlns="http://www.w3.org/2000/svg">
<circle cx="25.5" cy="25.5" r="24.5" stroke="url(#paint0_linear_1716_1751)" stroke-width="2"/>
<g clip-path="url(#clip0_1716_1751)">
<path d="M26 15.343C29.4732 15.343 29.8809 15.3585 31.2537 15.4204C32.5232 15.4772 33.2096 15.6888 33.6689 15.8694C34.2779 16.1068 34.7114 16.3855 35.1656 16.8396C35.6197 17.2938 35.9035 17.7273 36.1358 18.3362C36.3112 18.7956 36.528 19.4819 36.5848 20.7515C36.6467 22.1243 36.6622 22.532 36.6622 26.0052C36.6622 29.4784 36.6467 29.8861 36.5848 31.2588C36.528 32.5284 36.3164 33.2148 36.1358 33.6741C35.8984 34.283 35.6197 34.7166 35.1656 35.1707C34.7114 35.6248 34.2779 35.9087 33.6689 36.1409C33.2096 36.3164 32.5232 36.5331 31.2537 36.5899C29.8809 36.6518 29.4732 36.6673 26 36.6673C22.5268 36.6673 22.1191 36.6518 20.7463 36.5899C19.4768 36.5331 18.7904 36.3216 18.3311 36.1409C17.7221 35.9035 17.2886 35.6248 16.8345 35.1707C16.3803 34.7166 16.0965 34.283 15.8642 33.6741C15.6888 33.2148 15.472 32.5284 15.4152 31.2588C15.3533 29.8861 15.3378 29.4784 15.3378 26.0052C15.3378 22.532 15.3533 22.1243 15.4152 20.7515C15.472 19.4819 15.6836 18.7956 15.8642 18.3362C16.1016 17.7273 16.3803 17.2938 16.8345 16.8396C17.2886 16.3855 17.7221 16.1016 18.3311 15.8694C18.7904 15.6939 19.4768 15.4772 20.7463 15.4204C22.1191 15.3533 22.532 15.343 26 15.343ZM26 13C22.47 13 22.0262 13.0155 20.638 13.0774C19.2549 13.1393 18.3104 13.3613 17.4847 13.6812C16.628 14.0115 15.9055 14.4605 15.183 15.183C14.4605 15.9055 14.0167 16.6332 13.6812 17.4847C13.3613 18.3104 13.1393 19.2549 13.0774 20.6431C13.0155 22.0262 13 22.47 13 26C13 29.53 13.0155 29.9738 13.0774 31.362C13.1393 32.7451 13.3613 33.6896 13.6812 34.5204C14.0115 35.3771 14.4605 36.0996 15.183 36.8222C15.9055 37.5447 16.6332 37.9885 17.4847 38.3239C18.3104 38.6439 19.2549 38.8658 20.6431 38.9277C22.0314 38.9897 22.47 39.0052 26.0052 39.0052C29.5403 39.0052 29.979 38.9897 31.3672 38.9277C32.7503 38.8658 33.6947 38.6439 34.5256 38.3239C35.3823 37.9936 36.1048 37.5447 36.8273 36.8222C37.5498 36.0996 37.9937 35.372 38.3291 34.5204C38.6491 33.6947 38.871 32.7503 38.9329 31.362C38.9949 29.9738 39.0103 29.5351 39.0103 26C39.0103 22.4649 38.9949 22.0262 38.9329 20.638C38.871 19.2549 38.6491 18.3104 38.3291 17.4796C37.9988 16.6229 37.5498 15.9004 36.8273 15.1778C36.1048 14.4553 35.3771 14.0115 34.5256 13.6761C33.6999 13.3561 32.7555 13.1342 31.3672 13.0723C29.9738 13.0155 29.53 13 26 13Z" fill="white"/>
<path d="M26 15.343C29.4732 15.343 29.8809 15.3585 31.2537 15.4204C32.5232 15.4772 33.2096 15.6888 33.6689 15.8694C34.2779 16.1068 34.7114 16.3855 35.1656 16.8396C35.6197 17.2938 35.9035 17.7273 36.1358 18.3362C36.3112 18.7956 36.528 19.4819 36.5848 20.7515C36.6467 22.1243 36.6622 22.532 36.6622 26.0052C36.6622 29.4784 36.6467 29.8861 36.5848 31.2588C36.528 32.5284 36.3164 33.2148 36.1358 33.6741C35.8984 34.283 35.6197 34.7166 35.1656 35.1707C34.7114 35.6248 34.2779 35.9087 33.6689 36.1409C33.2096 36.3164 32.5232 36.5331 31.2537 36.5899C29.8809 36.6518 29.4732 36.6673 26 36.6673C22.5268 36.6673 22.1191 36.6518 20.7463 36.5899C19.4768 36.5331 18.7904 36.3216 18.3311 36.1409C17.7221 35.9035 17.2886 35.6248 16.8345 35.1707C16.3803 34.7166 16.0965 34.283 15.8642 33.6741C15.6888 33.2148 15.472 32.5284 15.4152 31.2588C15.3533 29.8861 15.3378 29.4784 15.3378 26.0052C15.3378 22.532 15.3533 22.1243 15.4152 20.7515C15.472 19.4819 15.6836 18.7956 15.8642 18.3362C16.1016 17.7273 16.3803 17.2938 16.8345 16.8396C17.2886 16.3855 17.7221 16.1016 18.3311 15.8694C18.7904 15.6939 19.4768 15.4772 20.7463 15.4204C22.1191 15.3533 22.532 15.343 26 15.343Z" fill="white"/>
<path d="M26.0003 19.3271C22.3155 19.3271 19.3223 22.3152 19.3223 26.0052C19.3223 29.6951 22.3104 32.6832 26.0003 32.6832C29.6903 32.6832 32.6784 29.6951 32.6784 26.0052C32.6784 22.3152 29.6903 19.3271 26.0003 19.3271ZM26.0003 30.3351C23.6057 30.3351 21.6653 28.3946 21.6653 26C21.6653 23.6054 23.6057 21.665 26.0003 21.665C28.3949 21.665 30.3354 23.6054 30.3354 26C30.3354 28.3946 28.3949 30.3351 26.0003 30.3351Z" fill="#2F2E2E"/>
<path d="M32.9414 20.6171C33.8021 20.6171 34.4999 19.9193 34.4999 19.0586C34.4999 18.1978 33.8021 17.5 32.9414 17.5C32.0806 17.5 31.3828 18.1978 31.3828 19.0586C31.3828 19.9193 32.0806 20.6171 32.9414 20.6171Z" fill="#2F2E2E"/>
</g>
<defs>
<linearGradient id="paint0_linear_1716_1751" x1="25.5" y1="0" x2="25.5" y2="51" gradientUnits="userSpaceOnUse">
<stop stop-color="#E78C21"/>
<stop offset="1" stop-color="#E9711F"/>
</linearGradient>
<clipPath id="clip0_1716_1751">
<rect width="26" height="26" fill="white" transform="translate(13 13)"/>
</clipPath>
</defs>
</svg>
