<svg width="51" height="51" viewBox="0 0 51 51" fill="none" xmlns="http://www.w3.org/2000/svg">
<circle cx="25.5" cy="25.5" r="24.5" stroke="url(#paint0_linear_1716_1753)" stroke-width="2"/>
<path d="M41.1996 19.3496V33.7768C41.1997 34.9432 40.7414 36.0655 39.9185 36.9141C39.0956 37.7628 37.9704 38.2736 36.773 38.342L36.4971 38.3496H14.5521C13.3526 38.3497 12.1985 37.904 11.3258 37.1038C10.4531 36.3037 9.92782 35.2095 9.85745 34.0451L9.84961 33.7768V19.3496L24.6546 28.9479L24.8365 29.0485C25.0508 29.1503 25.2861 29.2033 25.5246 29.2033C25.7631 29.2033 25.9985 29.1503 26.2127 29.0485L26.3946 28.9479L41.1996 19.3496Z" fill="white"/>
<path d="M37.0851 13.334C38.7951 13.334 40.2945 14.2365 41.1305 15.5934L26.0018 25.6792L10.873 15.5934C11.27 14.9486 11.8155 14.4081 12.4638 14.017C13.1122 13.6259 13.8447 13.3955 14.6002 13.3451L14.9185 13.334H37.0851Z" fill="white"/>
<defs>
<linearGradient id="paint0_linear_1716_1753" x1="25.5" y1="0" x2="25.5" y2="51" gradientUnits="userSpaceOnUse">
<stop stop-color="#E78C21"/>
<stop offset="1" stop-color="#E9711F"/>
</linearGradient>
</defs>
</svg>
