<svg width="51" height="51" viewBox="0 0 51 51" fill="none" xmlns="http://www.w3.org/2000/svg">
<circle cx="25.5" cy="25.5" r="24.5" stroke="url(#paint0_linear_1716_1749)" stroke-width="2"/>
<path fill-rule="evenodd" clip-rule="evenodd" d="M19.6056 15.1115C19.1268 14.0489 18.6234 14.0244 18.1691 14.0122C17.8007 14 17.371 14 16.9413 14C16.5115 14 15.824 14.1588 15.2346 14.7939C14.6453 15.429 13 16.968 13 20.107C13 23.2338 15.296 26.2628 15.6152 26.6903C15.9345 27.1178 20.0476 33.75 26.5428 36.3027C31.9451 38.4279 33.0502 38.0004 34.2166 37.8905C35.383 37.7806 37.9983 36.3516 38.5385 34.8615C39.0665 33.3714 39.0665 32.1011 38.9068 31.8324C38.7472 31.5637 38.3175 31.4049 37.679 31.0873C37.0406 30.7698 33.8974 29.2308 33.308 29.011C32.7187 28.8033 32.2889 28.6934 31.8715 29.3285C31.4417 29.9637 30.2139 31.3927 29.8456 31.8202C29.4772 32.2477 29.0966 32.2965 28.4582 31.979C27.8197 31.6614 25.757 30.9896 23.3136 28.8155C21.4105 27.13 20.1213 25.0414 19.753 24.4063C19.3846 23.7712 19.7161 23.4292 20.0354 23.1116C20.3178 22.8307 20.6738 22.3666 20.9931 22.0001C21.3123 21.6337 21.4228 21.365 21.6315 20.9375C21.8402 20.51 21.742 20.1436 21.5824 19.8261C21.4228 19.5207 20.1704 16.3695 19.6056 15.1115Z" fill="white"/>
<defs>
<linearGradient id="paint0_linear_1716_1749" x1="25.5" y1="0" x2="25.5" y2="51" gradientUnits="userSpaceOnUse">
<stop stop-color="#E78C21"/>
<stop offset="1" stop-color="#E9711F"/>
</linearGradient>
</defs>
</svg>
