<svg width="51" height="51" viewBox="0 0 51 51" fill="none" xmlns="http://www.w3.org/2000/svg">
<circle cx="25.5" cy="25.5" r="24.5" stroke="url(#paint0_linear_3519_236)" stroke-width="2"/>
<path d="M12 38V16.2697C12 15.6232 12.2229 15.0836 12.6688 14.6507C13.1137 14.2169 13.6683 14 14.3328 14H35.6672C36.3317 14 36.8863 14.2169 37.3312 14.6507C37.7771 15.0836 38 15.6232 38 16.2697V31.4059C38 32.0524 37.7776 32.5925 37.3327 33.0263C36.8868 33.4592 36.3317 33.6756 35.6672 33.6756H16.4446L12 38ZM21.4134 28.9998L25 26.8833L28.5866 28.9998L27.6332 25.0296L30.8052 22.3804L26.6366 22.022L25 18.2977L23.3634 22.022L19.1948 22.3804L22.3668 25.0296L21.4134 28.9998Z" fill="white"/>
<defs>
<linearGradient id="paint0_linear_3519_236" x1="0" y1="25.5" x2="51" y2="25.5" gradientUnits="userSpaceOnUse">
<stop stop-color="#E87F1E"/>
<stop offset="1" stop-color="#E98024"/>
</linearGradient>
</defs>
</svg>
