<svg width="51" height="51" viewBox="0 0 51 51" fill="none" xmlns="http://www.w3.org/2000/svg">
<circle cx="25.5" cy="25.5" r="24.5" stroke="url(#paint0_linear_1716_1754)" stroke-width="2"/>
<path d="M31.386 29.2C31.494 28.309 31.575 27.418 31.575 26.5C31.575 25.582 31.494 24.691 31.386 23.8H35.949C36.165 24.664 36.3 25.5685 36.3 26.5C36.3 27.4315 36.165 28.336 35.949 29.2M28.9965 36.706C29.8065 35.2075 30.4275 33.5875 30.8595 31.9H34.842C33.5341 34.1522 31.4591 35.8582 28.9965 36.706ZM28.659 29.2H22.341C22.206 28.309 22.125 27.418 22.125 26.5C22.125 25.582 22.206 24.6775 22.341 23.8H28.659C28.7805 24.6775 28.875 25.582 28.875 26.5C28.875 27.418 28.7805 28.309 28.659 29.2ZM25.5 37.246C24.3795 35.626 23.475 33.8305 22.9215 31.9H28.0785C27.525 33.8305 26.6205 35.626 25.5 37.246ZM20.1 21.1H16.158C17.4525 18.8417 19.526 17.133 21.99 16.294C21.18 17.7925 20.5725 19.4125 20.1 21.1ZM16.158 31.9H20.1C20.5725 33.5875 21.18 35.2075 21.99 36.706C19.5311 35.8577 17.4605 34.1514 16.158 31.9ZM15.051 29.2C14.835 28.336 14.7 27.4315 14.7 26.5C14.7 25.5685 14.835 24.664 15.051 23.8H19.614C19.506 24.691 19.425 25.582 19.425 26.5C19.425 27.418 19.506 28.309 19.614 29.2M25.5 15.7405C26.6205 17.3605 27.525 19.1695 28.0785 21.1H22.9215C23.475 19.1695 24.3795 17.3605 25.5 15.7405ZM34.842 21.1H30.8595C30.437 19.428 29.8113 17.814 28.9965 16.294C31.4805 17.1445 33.546 18.859 34.842 21.1ZM25.5 13C18.0345 13 12 19.075 12 26.5C12 30.0804 13.4223 33.5142 15.9541 36.0459C17.2076 37.2995 18.6959 38.2939 20.3338 38.9724C21.9717 39.6508 23.7272 40 25.5 40C29.0804 40 32.5142 38.5777 35.0459 36.0459C37.5777 33.5142 39 30.0804 39 26.5C39 24.7272 38.6508 22.9717 37.9724 21.3338C37.2939 19.6959 36.2995 18.2076 35.0459 16.9541C33.7924 15.7005 32.3041 14.7061 30.6662 14.0276C29.0283 13.3492 27.2728 13 25.5 13Z" fill="white"/>
<defs>
<linearGradient id="paint0_linear_1716_1754" x1="25.5" y1="0" x2="25.5" y2="51" gradientUnits="userSpaceOnUse">
<stop stop-color="#E78C21"/>
<stop offset="1" stop-color="#E9711F"/>
</linearGradient>
</defs>
</svg>
