<svg width="51" height="51" viewBox="0 0 51 51" fill="none" xmlns="http://www.w3.org/2000/svg">
<circle cx="25.5" cy="25.5" r="24.5" stroke="url(#paint0_linear_1716_1750)" stroke-width="2"/>
<g clip-path="url(#clip0_1716_1750)">
<path d="M12 40L13.979 32.8137C12.7555 30.7044 12.1137 28.3156 12.1203 25.8736C12.1203 18.2215 18.3782 12 26.0602 12C29.7908 12 33.2942 13.4439 35.9217 16.0656C38.5559 18.6873 40.0067 22.174 40 25.8802C40 33.5323 33.7421 39.7538 26.0535 39.7538H26.0468C23.7135 39.7538 21.4202 39.1683 19.3811 38.0637L12 40ZM19.7354 35.5551L20.1566 35.808C21.935 36.8593 23.9742 37.4116 26.0535 37.4183H26.0602C32.4451 37.4183 37.6466 32.2481 37.6466 25.8869C37.6466 22.8061 36.4432 19.9116 34.2569 17.7291C32.0707 15.5466 29.1557 14.3489 26.0602 14.3489C19.6753 14.3422 14.4737 19.5124 14.4737 25.8736C14.4737 28.0494 15.0821 30.1721 16.2455 32.0086L16.5196 32.4477L15.3496 36.6996L19.7354 35.5551Z" fill="white"/>
<path d="M12.4883 39.5139L14.4004 32.5738C13.217 30.5443 12.5953 28.2354 12.5953 25.8798C12.6019 18.4939 18.6392 12.4854 26.0604 12.4854C29.664 12.4854 33.0403 13.8827 35.5809 16.4112C38.1215 18.9397 39.5188 22.3066 39.5188 25.8865C39.5188 33.2724 33.4749 39.281 26.0604 39.281H26.0537C23.8006 39.281 21.5876 38.7154 19.622 37.6508L12.4883 39.5139Z" fill="#2F2E2E"/>
<path d="M12 40L13.979 32.8137C12.7555 30.7044 12.1137 28.3156 12.1203 25.8736C12.1203 18.2215 18.3782 12 26.0602 12C29.7908 12 33.2942 13.4439 35.9217 16.0656C38.5559 18.6873 40.0067 22.174 40 25.8802C40 33.5323 33.7421 39.7538 26.0535 39.7538H26.0468C23.7135 39.7538 21.4202 39.1683 19.3811 38.0637L12 40ZM19.7354 35.5551L20.1566 35.808C21.935 36.8593 23.9742 37.4116 26.0535 37.4183H26.0602C32.4451 37.4183 37.6466 32.2481 37.6466 25.8869C37.6466 22.8061 36.4432 19.9116 34.2569 17.7291C32.0707 15.5466 29.1557 14.3489 26.0602 14.3489C19.6753 14.3422 14.4737 19.5124 14.4737 25.8736C14.4737 28.0494 15.0821 30.1721 16.2455 32.0086L16.5196 32.4477L15.3496 36.6996L19.7354 35.5551Z" fill="white"/>
<path fill-rule="evenodd" clip-rule="evenodd" d="M22.5774 20.0713C22.3167 19.4924 22.0425 19.4791 21.7952 19.4725C21.5946 19.4658 21.3606 19.4658 21.1266 19.4658C20.8926 19.4658 20.5182 19.5523 20.1973 19.8983C19.8764 20.2443 18.9805 21.0827 18.9805 22.7928C18.9805 24.4962 20.2307 26.1464 20.4045 26.3793C20.5784 26.6122 22.8181 30.2253 26.3549 31.616C29.2966 32.7738 29.8983 32.5409 30.5335 32.481C31.1686 32.4211 32.5927 31.6426 32.8869 30.8308C33.1743 30.0191 33.1743 29.327 33.0874 29.1807C33.0005 29.0343 32.7665 28.9478 32.4189 28.7748C32.0712 28.6018 30.3596 27.7633 30.0387 27.6436C29.7178 27.5305 29.4838 27.4706 29.2565 27.8166C29.0225 28.1626 28.3539 28.9411 28.1533 29.174C27.9528 29.4069 27.7455 29.4335 27.3978 29.2605C27.0502 29.0875 25.927 28.7215 24.5965 27.5371C23.5602 26.6189 22.8582 25.481 22.6576 25.135C22.4571 24.789 22.6376 24.6027 22.8114 24.4297C22.9652 24.2767 23.1591 24.0238 23.3329 23.8242C23.5067 23.6246 23.5669 23.4782 23.6806 23.2453C23.7942 23.0124 23.7407 22.8128 23.6538 22.6398C23.5669 22.4734 22.885 20.7567 22.5774 20.0713Z" fill="white"/>
</g>
<defs>
<linearGradient id="paint0_linear_1716_1750" x1="25.5" y1="0" x2="25.5" y2="51" gradientUnits="userSpaceOnUse">
<stop stop-color="#E78C21"/>
<stop offset="1" stop-color="#E9711F"/>
</linearGradient>
<clipPath id="clip0_1716_1750">
<rect width="28" height="28" fill="white" transform="translate(12 12)"/>
</clipPath>
</defs>
</svg>
